<?xml version="1.0" encoding="UTF-8" standalone="no"?>
<!-- Created with Inkscape (http://www.inkscape.org/) -->
<svg xmlns:dc="http://purl.org/dc/elements/1.1/" xmlns:cc="http://web.resource.org/cc/" xmlns:rdf="http://www.w3.org/1999/02/22-rdf-syntax-ns#" xmlns:svg="http://www.w3.org/2000/svg" xmlns="http://www.w3.org/2000/svg" xmlns:sodipodi="http://sodipodi.sourceforge.net/DTD/sodipodi-0.dtd" xmlns:inkscape="http://www.inkscape.org/namespaces/inkscape" width="800" height="500" id="svg2" sodipodi:version="0.32" inkscape:version="0.45.1" version="1.0" sodipodi:docbase="/home/oskar/sorting-networks" sodipodi:docname="basicnetwork.svg" inkscape:output_extension="org.inkscape.output.svg.inkscape">
  <defs id="defs4"/>
  <sodipodi:namedview id="base" pagecolor="#ffffff" bordercolor="#666666" borderopacity="1.0" gridtolerance="50" guidetolerance="10" objecttolerance="10" inkscape:pageopacity="0.0" inkscape:pageshadow="2" inkscape:zoom="0.70710678" inkscape:cx="483.70261" inkscape:cy="288.28427" inkscape:document-units="px" inkscape:current-layer="layer1" width="800px" height="500px" showgrid="true" gridspacingx="5px" gridspacingy="25px" gridempspacing="4" inkscape:grid-points="false" showguides="true" inkscape:guide-bbox="true" inkscape:window-width="1024" inkscape:window-height="768" inkscape:window-x="0" inkscape:window-y="0" inkscape:grid-bbox="false"/>
  <metadata id="metadata7">
    <rdf:RDF>
      <cc:Work rdf:about="">
        <dc:format>image/svg+xml</dc:format>
        <dc:type rdf:resource="http://purl.org/dc/dcmitype/StillImage"/>
      </cc:Work>
    </rdf:RDF>
  </metadata>
  <g inkscape:label="Layer 1" inkscape:groupmode="layer" id="layer1">
    <path style="fill:none;fill-rule:evenodd;stroke:#000000;stroke-width:2;stroke-linecap:butt;stroke-linejoin:miter;stroke-miterlimit:4;stroke-dasharray:none;stroke-opacity:1" d="M 60.014259,101 C 699,101 699,101 699,101" id="path2160"/>
    <path style="fill:none;fill-rule:evenodd;stroke:#000000;stroke-width:2;stroke-linecap:butt;stroke-linejoin:miter;stroke-miterlimit:4;stroke-dasharray:none;stroke-opacity:1" d="M 60.014275,201 C 699,201 699,201 699,201" id="path2170"/>
    <path style="fill:none;fill-rule:evenodd;stroke:#000000;stroke-width:2;stroke-linecap:butt;stroke-linejoin:miter;stroke-miterlimit:4;stroke-dasharray:none;stroke-opacity:1" d="M 57.8234,300.5 C 697.80756,300.5 697.80756,300.5 697.80756,300.5" id="path2172"/>
    <path style="fill:none;fill-rule:evenodd;stroke:#000000;stroke-width:2;stroke-linecap:butt;stroke-linejoin:miter;stroke-miterlimit:4;stroke-dasharray:none;stroke-opacity:1" d="M 57.8234,400.5 C 697.80756,400.5 697.80756,400.5 697.80756,400.5" id="path2174"/>
    <g id="g4223" transform="translate(219.20587,0)">
      <path id="path4197" d="M 206.5,300.49296 C 206.5,399.08945 206.5,399.08945 206.5,399.08945" style="fill:none;fill-rule:evenodd;stroke:#000000;stroke-width:1.98591518;stroke-linecap:butt;stroke-linejoin:miter;stroke-miterlimit:4;stroke-dasharray:none;stroke-opacity:1"/>
      <path transform="matrix(0.4588236,0,0,0.4588236,108.99998,248.88234)" d="M 225 112.5 A 12.5 12.5 0 1 1  200,112.5 A 12.5 12.5 0 1 1  225 112.5 z" sodipodi:ry="12.5" sodipodi:rx="12.5" sodipodi:cy="112.5" sodipodi:cx="212.5" id="path4199" style="fill:#000000;fill-opacity:1;stroke:#000000;stroke-width:3.33333325;stroke-miterlimit:4;stroke-dasharray:none;stroke-opacity:1" sodipodi:type="arc"/>
      <path transform="matrix(0.4588236,0,0,0.4588236,108.99998,348.88234)" d="M 225 112.5 A 12.5 12.5 0 1 1  200,112.5 A 12.5 12.5 0 1 1  225 112.5 z" sodipodi:ry="12.5" sodipodi:rx="12.5" sodipodi:cy="112.5" sodipodi:cx="212.5" id="path4201" style="fill:#000000;fill-opacity:1;stroke:#000000;stroke-width:3.33333325;stroke-miterlimit:4;stroke-dasharray:none;stroke-opacity:1" sodipodi:type="arc"/>
    </g>
    <g id="g4228" transform="translate(-235.88245,0)">
      <path id="path4161" d="M 420,100.9901 C 420,300 420,300 420,300" style="fill:none;fill-rule:evenodd;stroke:#000000;stroke-width:2.82141733;stroke-linecap:butt;stroke-linejoin:miter;stroke-miterlimit:4;stroke-dasharray:none;stroke-opacity:1"/>
      <path transform="matrix(0.4588236,0,0,0.4588236,322.49998,47.882345)" d="M 225 112.5 A 12.5 12.5 0 1 1  200,112.5 A 12.5 12.5 0 1 1  225 112.5 z" sodipodi:ry="12.5" sodipodi:rx="12.5" sodipodi:cy="112.5" sodipodi:cx="212.5" id="path4163" style="fill:#000000;fill-opacity:1;stroke:#000000;stroke-width:3.33333325;stroke-miterlimit:4;stroke-dasharray:none;stroke-opacity:1" sodipodi:type="arc"/>
      <path transform="matrix(0.4588236,0,0,0.4588236,322.49998,248.88234)" d="M 225 112.5 A 12.5 12.5 0 1 1  200,112.5 A 12.5 12.5 0 1 1  225 112.5 z" sodipodi:ry="12.5" sodipodi:rx="12.5" sodipodi:cy="112.5" sodipodi:cx="212.5" id="path4170" style="fill:#000000;fill-opacity:1;stroke:#000000;stroke-width:3.33333325;stroke-miterlimit:4;stroke-dasharray:none;stroke-opacity:1" sodipodi:type="arc"/>
    </g>
    <g id="g4186" transform="translate(-51.588296,7.5)">
      <path id="path4180" d="M 356.50001,193.9901 C 356.50001,393 356.50001,393 356.50001,393" style="fill:none;fill-rule:evenodd;stroke:#000000;stroke-width:2.82141733;stroke-linecap:butt;stroke-linejoin:miter;stroke-miterlimit:4;stroke-dasharray:none;stroke-opacity:1"/>
      <path transform="matrix(0.4588236,0,0,0.4588236,258.99999,140.88235)" d="M 225 112.5 A 12.5 12.5 0 1 1  200,112.5 A 12.5 12.5 0 1 1  225 112.5 z" sodipodi:ry="12.5" sodipodi:rx="12.5" sodipodi:cy="112.5" sodipodi:cx="212.5" id="path4182" style="fill:#000000;fill-opacity:1;stroke:#000000;stroke-width:3.33333325;stroke-miterlimit:4;stroke-dasharray:none;stroke-opacity:1" sodipodi:type="arc"/>
      <path transform="matrix(0.4588236,0,0,0.4588236,258.99999,341.88234)" d="M 225 112.5 A 12.5 12.5 0 1 1  200,112.5 A 12.5 12.5 0 1 1  225 112.5 z" sodipodi:ry="12.5" sodipodi:rx="12.5" sodipodi:cy="112.5" sodipodi:cx="212.5" id="path4184" style="fill:#000000;fill-opacity:1;stroke:#000000;stroke-width:3.33333325;stroke-miterlimit:4;stroke-dasharray:none;stroke-opacity:1" sodipodi:type="arc"/>
    </g>
    <g id="g4218" transform="translate(219.20586,0.7500025)">
      <path id="path4191" d="M 206.5,100.67034 C 206.5,199.26683 206.5,199.26683 206.5,199.26683" style="fill:none;fill-rule:evenodd;stroke:#000000;stroke-width:1.98591518;stroke-linecap:butt;stroke-linejoin:miter;stroke-miterlimit:4;stroke-dasharray:none;stroke-opacity:1"/>
      <path transform="matrix(0.4588236,0,0,0.4588236,108.99999,47.882345)" d="M 225 112.5 A 12.5 12.5 0 1 1  200,112.5 A 12.5 12.5 0 1 1  225 112.5 z" sodipodi:ry="12.5" sodipodi:rx="12.5" sodipodi:cy="112.5" sodipodi:cx="212.5" id="path4193" style="fill:#000000;fill-opacity:1;stroke:#000000;stroke-width:3.33333325;stroke-miterlimit:4;stroke-dasharray:none;stroke-opacity:1" sodipodi:type="arc"/>
      <path transform="matrix(0.4588236,0,0,0.4588236,108.99999,147.88234)" d="M 225 112.5 A 12.5 12.5 0 1 1  200,112.5 A 12.5 12.5 0 1 1  225 112.5 z" sodipodi:ry="12.5" sodipodi:rx="12.5" sodipodi:cy="112.5" sodipodi:cx="212.5" id="path4195" style="fill:#000000;fill-opacity:1;stroke:#000000;stroke-width:3.33333325;stroke-miterlimit:4;stroke-dasharray:none;stroke-opacity:1" sodipodi:type="arc"/>
    </g>
    <g id="g4209" transform="translate(-6.9999979,-5.75)">
      <path id="path4203" d="M 553.5,207.67034 C 553.5,306.26683 553.5,306.26683 553.5,306.26683" style="fill:none;fill-rule:evenodd;stroke:#000000;stroke-width:1.98591518;stroke-linecap:butt;stroke-linejoin:miter;stroke-miterlimit:4;stroke-dasharray:none;stroke-opacity:1"/>
      <path transform="matrix(0.4588236,0,0,0.4588236,455.99998,154.88235)" d="M 225 112.5 A 12.5 12.5 0 1 1  200,112.5 A 12.5 12.5 0 1 1  225 112.5 z" sodipodi:ry="12.5" sodipodi:rx="12.5" sodipodi:cy="112.5" sodipodi:cx="212.5" id="path4205" style="fill:#000000;fill-opacity:1;stroke:#000000;stroke-width:3.33333325;stroke-miterlimit:4;stroke-dasharray:none;stroke-opacity:1" sodipodi:type="arc"/>
      <path transform="matrix(0.4588236,0,0,0.4588236,455.99998,254.88234)" d="M 225 112.5 A 12.5 12.5 0 1 1  200,112.5 A 12.5 12.5 0 1 1  225 112.5 z" sodipodi:ry="12.5" sodipodi:rx="12.5" sodipodi:cy="112.5" sodipodi:cx="212.5" id="path4207" style="fill:#000000;fill-opacity:1;stroke:#000000;stroke-width:3.33333325;stroke-miterlimit:4;stroke-dasharray:none;stroke-opacity:1" sodipodi:type="arc"/>
    </g>
  </g>
</svg>